<svg width="261" height="32" viewBox="0 0 261 32" fill="none" xmlns="http://www.w3.org/2000/svg">
<path d="M235.489 27.8376L235.485 31.6866L235.489 31.6866H231.506V0.35791H235.086L256.032 25.1971V0.35791H260.015V31.6866H256.663L253.391 27.8376L235.489 6.71316V27.8376Z" fill="black"/>
<path d="M253.388 27.8374L256.665 31.6864H235.486V27.8374H253.388Z" fill="black" fill-opacity="0.25"/>
<path d="M219.914 31.6866V0.35791H223.897V31.6866H219.914Z" fill="black"/>
<path d="M208.332 16.6936V0.35791H212.316V31.6866H208.332V20.5425H187.208V31.6866H183.225V0.35791H187.208V16.6936H208.332Z" fill="black"/>
<path d="M151.028 4.20686V17.6782C151.028 20.4978 151.923 22.9593 153.669 25.0628C155.414 27.1663 157.965 28.2404 161.322 28.2404C164.678 28.2404 167.274 27.1663 169.02 25.0628C170.765 22.9593 171.616 20.4978 171.616 17.6782V4.20686V0.35791H175.599V17.5887C175.599 21.6166 174.346 25.018 171.795 27.7929C169.244 30.6125 165.753 31.9999 161.322 31.9999C156.891 31.9999 153.4 30.6125 150.849 27.7929C148.298 25.018 147.045 21.6166 147.045 17.5887V0.35791H151.028V4.20686Z" fill="black"/>
<path d="M151.027 0.35791H171.615V4.20686H151.027V0.35791Z" fill="black" fill-opacity="0.25"/>
<path d="M111.232 0.35791H140.995V4.20686H128.105V31.6866H124.122V4.20686H111.232V0.35791Z" fill="black"/>
<path d="M84.959 31.6864L87.0359 27.8374L108.529 27.8374L110.616 31.6864L84.959 31.6864Z" fill="black"/>
<path d="M110.616 31.6867L108.53 27.8378L97.7885 8.01118L87.0462 27.8378L84.9588 31.6867H80.334L97.7885 0L115.243 31.6867H110.616Z" fill="black"/>
<path d="M70.303 27.8374V31.6864H43.6289V27.8374H70.303Z" fill="black" fill-opacity="0.25"/>
<path d="M43.6277 6.71316V27.8376V31.6866H39.6445V0.35791H43.2697L56.9648 17.1859L70.6599 0.35791H74.2851V31.6866H70.3019V27.8376V6.71316L56.9648 23.0488L43.6277 6.71316Z" fill="black"/>
<path d="M29.8164 0.35791H34.5063L19.2895 23.6306V31.6866H15.3063V23.6306L0 0.35791H4.65455L17.2308 19.6474L27.3007 4.20686L29.8164 0.35791Z" fill="black"/>
<path d="M29.8175 0.35791L27.3018 4.20686H16.0234L18.485 0.35791H29.8175Z" fill="black" fill-opacity="0.25"/>
</svg>
