<svg fill="none" height="86" viewBox="0 0 693 86" width="693" xmlns="http://www.w3.org/2000/svg">
  <g fill="currentColor">
    <path
      d="m626.813 74.64-.012 10.32h.012-10.68v-84.000039h9.6l56.16 66.600039v-66.600039h10.68v84.000039h-8.987l-8.773-10.32-48-56.64z"/>
    <path d="m674.801 74.6399 8.786 10.32h-56.786v-10.32z" fill-opacity=".25"/>
    <path d="m585.049 84.96v-84.000039h10.68v84.000039z"/>
    <path d="m555.22 44.76v-43.800039h10.68v84.000039h-10.68v-29.88h-56.64v29.88h-10.68v-84.000039h10.68v43.800039z"/>
    <path
      d="m403.41 11.28v36.12c0 7.56 2.4 14.16 7.08 19.8s11.52 8.52 20.52 8.52 15.96-2.88 20.64-8.52 6.96-12.24 6.96-19.8v-36.12-10.320039h10.68v46.200039c0 10.8-3.36 19.92-10.2 27.36-6.84 7.56-16.2 11.28-28.08 11.28s-21.24-3.72-28.08-11.28c-6.84-7.44-10.2-16.56-10.2-27.36v-46.200039h10.68z"/>
    <path d="m403.41.959961h55.2v10.320039h-55.2z" fill-opacity=".25"/>
    <path d="m296.711.959961h79.8v10.320039h-34.56v73.68h-10.68v-73.68h-34.56z"/>
    <path d="m224.732 84.96 5.569-10.32 57.63-.0001 5.593 10.32z"/>
    <path d="m293.523 84.96-5.593-10.32-28.8-53.16-28.803 53.16-5.597 10.32h-12.4l46.8-84.96 46.8 84.96z"/>
    <path d="m188.499 74.6399v10.32h-71.52v-10.32z" fill-opacity=".25"/>
    <path
      d="m116.979 18v56.64 10.32h-10.68v-84.000039h9.72l36.72 45.120039 36.72-45.120039h9.72v84.000039h-10.68v-10.32-56.64l-35.76 43.8z"/>
    <path
      d="m79.9453.959961h12.5747l-40.8 62.400039v21.6h-10.68v-21.6l-41.04-62.400039h12.48l33.72 51.720039 27-41.4z"/>
    <path d="m79.9463.959961-6.7454 10.320039h-30.24l6.6-10.320039z" fill-opacity=".25"/>
  </g>
</svg>
