<svg fill="none" height="561" viewBox="0 0 4552 561" width="4552" xmlns="http://www.w3.org/2000/svg"><g fill="#000"><path d="m4122.55 487.335-.08 67.381h.08-69.73v-548.44793h62.68l366.67 434.84093v-434.84093h69.74v548.44793h-58.68l-57.28-67.381-313.4-369.81z"/><path d="m4435.87 487.333 57.37 67.381h-370.77v-67.381z" fill-opacity=".25"/><path d="m3849.87 554.716v-548.44793h69.73v548.44793z"/><path d="m3647.11 292.244v-285.97593h69.73v548.44793h-69.73v-195.091h-369.81v195.091h-69.73v-548.44793h69.73v285.97593z"/><path d="m2643.92 73.6488v235.8322c0 49.361 15.67 92.453 46.23 129.277 30.56 36.825 75.21 55.629 133.98 55.629 58.76 0 104.2-18.804 134.76-55.629 30.55-36.824 45.44-79.916 45.44-129.277v-235.8322-67.38073h69.73v301.64593c0 70.515-21.94 130.061-66.59 178.638-44.66 49.36-105.78 73.648-183.34 73.648-77.57 0-138.68-24.288-183.34-73.648-44.66-48.577-66.6-108.123-66.6-178.638v-301.64593h69.73z"/><path d="m2643.92 6.26807h360.41v67.38073h-360.41z" fill-opacity=".25"/><path d="m1947.27 6.26807h521.02v67.38073h-225.64v481.0672h-69.74v-481.0672h-225.64z"/><path d="m1487.31 554.714 36.36-67.38 376.27-.001 36.52 67.381z"/><path d="m1936.45 554.716-36.51-67.381-188.04-347.089-188.06 347.089-36.54 67.381h-80.97l305.57-554.716 305.56 554.716z"/><path d="m1230.73 487.333v67.381h-466.96v-67.381z" fill-opacity=".25"/><path d="m763.77 117.525v369.81 67.381h-69.731v-548.44793h63.463l239.75 294.59493 239.748-294.59493h63.47v548.44793h-69.74v-67.381-369.81l-233.478 285.976z"/><path d="m521.974 6.26807h82.102l-266.389 407.41893v141.029h-69.731v-141.029l-267.956-407.41893h81.4837l220.1623 337.68693 176.287-270.3062z"/><path d="m521.98 6.26807-44.041 67.38073h-197.441l43.092-67.38073z" fill-opacity=".25"/></g></svg>