<svg fill="none" height="16" viewBox="0 0 130 16" width="130" xmlns="http://www.w3.org/2000/svg" xmlns:xlink="http://www.w3.org/1999/xlink"><clipPath id="a"><path d="m0 0h130v16h-130z"/></clipPath><g clip-path="url(#a)" fill="#000"><path d="m117.042 13.9186-.002 1.9245h.002-1.999v-15.664389h1.797l10.513 12.419589v-12.419589h1.999v15.664389h-1.682l-1.643-1.9245-8.985-10.56226z"/><path d="m126.024 13.9185 1.645 1.9245h-10.63v-1.9245z" fill-opacity=".25"/><path d="m109.676 15.8431v-15.664389h1.999v15.664389z"/><path d="m103.863 8.34656v-8.167849h2v15.664389h-2v-5.5721h-10.6022v5.5721h-1.9991v-15.664389h1.9991v8.167849z"/><path d="m75.1007 2.10319v6.73567c0 1.40984.4492 2.64054 1.3256 3.69234.8758 1.0517 2.1562 1.5888 3.8411 1.5888 1.6844 0 2.9874-.5371 3.8638-1.5888.8758-1.0518 1.3029-2.2825 1.3029-3.69234v-6.73567-1.924479h1.9992v8.615399c0 2.01399-.6289 3.71469-1.9093 5.10209-1.2804 1.4098-3.0326 2.1035-5.2566 2.1035s-3.9762-.6937-5.2565-2.1035c-1.2804-1.3874-1.9093-3.0881-1.9093-5.10209v-8.615399h1.9991z"/><path d="m75.0996.178711h10.3335v1.924479h-10.3335z" fill-opacity=".25"/><path d="m55.127.178711h14.9385v1.924479h-6.4697v13.73991h-1.9992v-13.73991h-6.4696z"/><path d="m42.6426 15.843 1.0424-1.9245h10.7877l1.0475 1.9245z"/><path d="m55.5193 15.8434-1.047-1.9245-5.3913-9.91331-5.3917 9.91331-1.0477 1.9245h-2.3213l8.7607-15.8434 8.7607 15.8434z"/><path d="m35.2866 13.9185v1.9245h-13.3882v-1.9245z" fill-opacity=".25"/><path d="m21.8977 3.35634v10.56226 1.9245h-1.9993v-15.664389h1.8196l6.8738 8.413999 6.8738-8.413999h1.8195v15.664389h-1.9992v-1.9245-10.56226l-6.6941 8.16786z"/><path d="m14.9653.178711h2.354l-7.6376 11.636389v4.028h-1.99923v-4.028l-7.68247-11.636389h2.33619l6.31222 9.644749 5.05429-7.72027z"/><path d="m14.9664.178711-1.2626 1.924479h-5.66083l1.23552-1.924479z" fill-opacity=".25"/></g></svg>