<svg fill="none" height="78" viewBox="0 0 642 78" width="642" xmlns="http://www.w3.org/2000/svg">
  <path
    d="m44.6295.86459h38.6853l-36.7403 56.19101v19.4507h-9.6173v-19.4507l-36.95636235-56.19101h11.23816235l30.3648 46.57371 24.3134-37.2806h-27.231zm92.9115 40.63041 33.067-40.63041h8.752v75.64171h-83.6377v-75.64171h8.7527zm-32.201 25.7182h64.403v-51.0041l-32.202 39.4417-32.201-39.4417zm85.863 9.2931 42.143-76.5061826 42.144 76.5061826zm42.143-57.1635-25.826 47.8704h51.761zm51.852-18.47821h71.86v9.29311h-31.121v66.3486h-9.618v-66.3486h-31.121zm86.465 0h68.942v41.60301c0 9.7253-3.026 17.9379-9.185 24.6376-6.16 6.8077-14.588 10.1576-25.286 10.1576s-19.127-3.3499-25.286-10.1576c-6.16-6.6997-9.185-14.9123-9.185-24.6376zm15.993 59.64891c4.214 5.0788 10.373 7.6723 18.478 7.6723 8.104 0 14.372-2.5935 18.586-7.6723s6.267-11.0221 6.267-17.8298v-32.526h-49.707v32.526c0 6.8077 2.161 12.751 6.376 17.8298zm130.329-20.2071v-39.44181h9.617v75.64171h-9.617v-26.9068h-51.004v26.9068h-9.618v-75.64171h9.618v39.44181zm26.86 36.1999v-75.64171h9.617v75.64171zm87.207-15.6686v-59.97311h9.617v75.64171h-68.834v-75.64171h8.645zm-6.376 6.3755-43.224-51.0041v51.0041z"
    fill="currentColor"/>
</svg>
