<svg width="16" height="16" viewBox="0 0 16 16" fill="none" xmlns="http://www.w3.org/2000/svg">
<rect width="16" height="16" fill="#131516"/>
<path d="M12.5231 10.808H11.9531L13.9871 5H14.5451L12.5231 10.808Z" fill="#75757A"/>
<path d="M7.4082 6.66772C7.5362 6.63572 7.7042 6.60172 7.9122 6.56572C8.1242 6.52972 8.3682 6.51172 8.6442 6.51172C8.8442 6.51172 9.0122 6.53972 9.1482 6.59572C9.2842 6.64772 9.3982 6.72572 9.4902 6.82972C9.5182 6.80972 9.5622 6.78172 9.6222 6.74572C9.6822 6.70972 9.7562 6.67572 9.8442 6.64372C9.9322 6.60772 10.0302 6.57772 10.1382 6.55372C10.2462 6.52572 10.3622 6.51172 10.4862 6.51172C10.7262 6.51172 10.9222 6.54772 11.0742 6.61972C11.2262 6.68772 11.3442 6.78572 11.4282 6.91372C11.5162 7.04172 11.5742 7.19372 11.6022 7.36972C11.6342 7.54572 11.6502 7.73772 11.6502 7.94572V9.69772H11.0922V8.06572C11.0922 7.88172 11.0822 7.72372 11.0622 7.59172C11.0462 7.45972 11.0122 7.34972 10.9602 7.26172C10.9122 7.17372 10.8442 7.10972 10.7562 7.06972C10.6722 7.02572 10.5622 7.00372 10.4262 7.00372C10.2382 7.00372 10.0822 7.02972 9.9582 7.08172C9.8382 7.12972 9.7562 7.17372 9.7122 7.21372C9.7442 7.31772 9.7682 7.43172 9.7842 7.55572C9.8002 7.67972 9.8082 7.80972 9.8082 7.94572V9.69772H9.2502V8.06572C9.2502 7.88172 9.2402 7.72372 9.2202 7.59172C9.2002 7.45972 9.1642 7.34972 9.1122 7.26172C9.0642 7.17372 8.9962 7.10972 8.9082 7.06972C8.8242 7.02572 8.7162 7.00372 8.5842 7.00372C8.5282 7.00372 8.4682 7.00572 8.4042 7.00972C8.3402 7.01372 8.2782 7.01972 8.2182 7.02772C8.1622 7.03172 8.1102 7.03772 8.0622 7.04572C8.0142 7.05372 7.9822 7.05972 7.9662 7.06372V9.69772H7.4082V6.66772Z" fill="#FAFAFA"/>
<path d="M4.06098 10.2801C4.10498 10.3001 4.16098 10.3181 4.22898 10.3341C4.30098 10.3541 4.37098 10.3641 4.43898 10.3641C4.65898 10.3641 4.83098 10.3141 4.95498 10.2141C5.07898 10.1181 5.19098 9.96013 5.29098 9.74013C5.03898 9.26013 4.80298 8.75213 4.58298 8.21613C4.36698 7.67613 4.18698 7.13013 4.04298 6.57812H4.64298C4.68698 6.75813 4.73898 6.95213 4.79898 7.16013C4.86298 7.36813 4.93298 7.58213 5.00898 7.80213C5.08498 8.02213 5.16698 8.24213 5.25498 8.46213C5.34298 8.68213 5.43498 8.89413 5.53098 9.09813C5.68298 8.67813 5.81498 8.26213 5.92698 7.85013C6.03898 7.43813 6.14498 7.01413 6.24498 6.57812H6.82098C6.67698 7.16613 6.51698 7.73213 6.34098 8.27613C6.16498 8.81613 5.97498 9.32213 5.77098 9.79413C5.69098 9.97413 5.60698 10.1281 5.51898 10.2561C5.43498 10.3881 5.34098 10.4961 5.23698 10.5801C5.13298 10.6641 5.01498 10.7261 4.88298 10.7661C4.75498 10.8061 4.60898 10.8261 4.44498 10.8261C4.40098 10.8261 4.35498 10.8221 4.30698 10.8141C4.25898 10.8101 4.21098 10.8021 4.16298 10.7901C4.11898 10.7821 4.07698 10.7721 4.03698 10.7601C4.00098 10.7481 3.97498 10.7381 3.95898 10.7301L4.06098 10.2801Z" fill="#FAFAFA"/>
<path d="M2.07 10.808H1.5L3.534 5H4.092L2.07 10.808Z" fill="#75757A"/>
</svg>
