<svg width="16" height="16" viewBox="0 0 16 16" fill="none" xmlns="http://www.w3.org/2000/svg">
<rect width="16" height="16" fill="#131516"/>
<path d="M7 5.29379C7.2414 5.23352 7.55823 5.16949 7.9505 5.10169C8.35031 5.0339 8.81047 5 9.33098 5C9.70816 5 10.025 5.05273 10.2815 5.15819C10.538 5.25612 10.7529 5.40301 10.9264 5.59887C10.9793 5.56121 11.0622 5.50847 11.1754 5.44068C11.2885 5.37288 11.4281 5.30885 11.5941 5.24859C11.76 5.18079 11.9448 5.12429 12.1485 5.0791C12.3522 5.02637 12.571 5 12.8048 5C13.2574 5 13.6271 5.0678 13.9137 5.20339C14.2004 5.33145 14.4229 5.51601 14.5813 5.75706C14.7473 5.99812 14.8567 6.28437 14.9095 6.61582C14.9698 6.94727 15 7.30885 15 7.70056V11H13.9477V7.92655C13.9477 7.58004 13.9288 7.28249 13.8911 7.0339C13.8609 6.78531 13.7968 6.57815 13.6987 6.41243C13.6082 6.2467 13.48 6.12618 13.314 6.05085C13.1556 5.96798 12.9481 5.92655 12.6917 5.92655C12.3371 5.92655 12.0429 5.97552 11.8091 6.07345C11.5827 6.16384 11.4281 6.2467 11.3451 6.32203C11.4055 6.51789 11.4507 6.73258 11.4809 6.9661C11.5111 7.19962 11.5262 7.44444 11.5262 7.70056V11H10.4738V7.92655C10.4738 7.58004 10.455 7.28249 10.4173 7.0339C10.3795 6.78531 10.3116 6.57815 10.2136 6.41243C10.1231 6.2467 9.99481 6.12618 9.82885 6.05085C9.67044 5.96798 9.46676 5.92655 9.21782 5.92655C9.11221 5.92655 8.99906 5.93032 8.87836 5.93785C8.75766 5.94539 8.64074 5.95669 8.52758 5.97175C8.42197 5.97928 8.3239 5.99058 8.23338 6.00565C8.14286 6.02072 8.08251 6.03202 8.05233 6.03955V11H7V5.29379Z" fill="#FAFAFA"/>
<path d="M1.1782 11.9718C1.25507 12.0094 1.3529 12.0433 1.4717 12.0734C1.59748 12.1111 1.71978 12.1299 1.83857 12.1299C2.22292 12.1299 2.52341 12.0358 2.74004 11.8475C2.95667 11.6667 3.15234 11.3691 3.32704 10.9548C2.88679 10.0508 2.47449 9.09416 2.09015 8.08475C1.71279 7.0678 1.39832 6.03955 1.14675 5H2.19497C2.27184 5.33898 2.36268 5.70433 2.46751 6.09605C2.57932 6.48776 2.70161 6.89077 2.83438 7.30509C2.96716 7.7194 3.11041 8.13371 3.26415 8.54802C3.41789 8.96234 3.57862 9.36158 3.74633 9.74576C4.01188 8.9548 4.24249 8.17137 4.43816 7.39548C4.63382 6.61959 4.81901 5.82109 4.99371 5H6C5.74843 6.10734 5.4689 7.17326 5.16143 8.19774C4.85395 9.21469 4.52201 10.1676 4.16562 11.0565C4.02586 11.3955 3.87911 11.6855 3.72537 11.9266C3.57862 12.1751 3.4144 12.3785 3.2327 12.5367C3.05101 12.6949 2.84486 12.8117 2.61426 12.887C2.39064 12.9623 2.13557 13 1.84906 13C1.77219 13 1.69182 12.9925 1.60797 12.9774C1.52411 12.9699 1.44025 12.9548 1.35639 12.9322C1.27952 12.9171 1.20615 12.8983 1.13627 12.8757C1.07338 12.8531 1.02795 12.8343 1 12.8192L1.1782 11.9718Z" fill="#FAFAFA"/>
</svg>
