<svg width="36" height="20" viewBox="0 0 36 20" fill="none" xmlns="http://www.w3.org/2000/svg">
<rect width="36" height="20" rx="2" fill="#282B3B"/>
<path d="M18.0742 6.3616C18.3737 6.28743 18.7669 6.20862 19.2536 6.12517C19.7497 6.04172 20.3206 6 20.9664 6C21.4344 6 21.8276 6.0649 22.1458 6.19471C22.464 6.31524 22.7308 6.49604 22.9461 6.73711C23.0116 6.69075 23.1146 6.62585 23.255 6.5424C23.3954 6.45896 23.5685 6.38015 23.7744 6.30597C23.9804 6.22252 24.2097 6.15299 24.4624 6.09735C24.7151 6.03245 24.9866 6 25.2767 6C25.8383 6 26.2969 6.08345 26.6526 6.25034C27.0083 6.40796 27.2844 6.63512 27.481 6.93182C27.6869 7.22852 27.8226 7.58085 27.8881 7.98881C27.963 8.39678 28.0005 8.84183 28.0005 9.32396V13.385H26.6947V9.60212C26.6947 9.17561 26.6713 8.80937 26.6245 8.5034C26.5871 8.19743 26.5075 7.94246 26.3859 7.73847C26.2736 7.53449 26.1144 7.38614 25.9085 7.29342C25.712 7.19143 25.4546 7.14044 25.1363 7.14044C24.6964 7.14044 24.3314 7.20071 24.0412 7.32124C23.7604 7.4325 23.5685 7.53449 23.4656 7.62721C23.5404 7.86828 23.5966 8.13253 23.634 8.41996C23.6715 8.70738 23.6902 9.00872 23.6902 9.32396V13.385H22.3845V9.60212C22.3845 9.17561 22.3611 8.80937 22.3143 8.5034C22.2675 8.19743 22.1832 7.94246 22.0616 7.73847C21.9492 7.53449 21.7901 7.38614 21.5842 7.29342C21.3876 7.19143 21.1349 7.14044 20.826 7.14044C20.695 7.14044 20.5546 7.14507 20.4049 7.15435C20.2551 7.16362 20.11 7.17753 19.9696 7.19607C19.8386 7.20534 19.7169 7.21925 19.6046 7.23779C19.4923 7.25634 19.4174 7.27025 19.3799 7.27952V13.385H18.0742V6.3616Z" fill="#C2CAF1"/>
<path d="M10.2387 14.7335C10.3416 14.7798 10.4727 14.8215 10.6318 14.8586C10.8003 14.905 10.9641 14.9282 11.1232 14.9282C11.638 14.9282 12.0405 14.8123 12.3306 14.5805C12.6208 14.3579 12.8829 13.9917 13.1169 13.4818C12.5272 12.3691 11.975 11.1916 11.4602 9.94917C10.9547 8.69747 10.5335 7.43186 10.1966 6.15234H11.6006C11.7035 6.56958 11.8252 7.01926 11.9656 7.5014C12.1154 7.98354 12.2792 8.47958 12.457 8.98953C12.6348 9.49949 12.8267 10.0094 13.0326 10.5194C13.2385 11.0293 13.4538 11.5208 13.6785 11.9936C14.0341 11.0201 14.343 10.0558 14.6051 9.1008C14.8672 8.14579 15.1152 7.16298 15.3492 6.15234H16.6971C16.3601 7.51531 15.9857 8.82728 15.5739 10.0883C15.162 11.34 14.7174 12.5128 14.2401 13.6069C14.0529 14.0242 13.8563 14.3811 13.6504 14.6778C13.4538 14.9838 13.2339 15.2341 12.9905 15.4288C12.7471 15.6236 12.471 15.7673 12.1622 15.86C11.8626 15.9527 11.521 15.9991 11.1372 15.9991C11.0343 15.9991 10.9266 15.9898 10.8143 15.9712C10.702 15.962 10.5897 15.9434 10.4774 15.9156C10.3744 15.8971 10.2761 15.8739 10.1825 15.8461C10.0983 15.8183 10.0374 15.7951 10 15.7765L10.2387 14.7335Z" fill="#C2CAF1"/>
<rect x="31" y="9" width="2" height="2" rx="1" fill="#343950"/>
<rect x="5" y="9" width="2" height="2" rx="1" fill="#343950"/>
<rect width="2" height="20" fill="#C2CAF1"/>
</svg>
