<svg width="44" height="20" viewBox="0 0 44 20" fill="none" xmlns="http://www.w3.org/2000/svg">
<path d="M2.42 19.7H0.52L7.3 0.339999H9.16L2.42 19.7ZM37.2638 19.7H35.3637L42.1438 0.339999H44.0038L37.2638 19.7Z" fill="#75757A"/>
<path d="M9.05578 17.94C9.20245 18.0067 9.38911 18.0667 9.61578 18.12C9.85578 18.1867 10.0891 18.22 10.3158 18.22C11.0491 18.22 11.6224 18.0533 12.0358 17.72C12.4491 17.4 12.8224 16.8733 13.1558 16.14C12.3158 14.54 11.5291 12.8467 10.7958 11.06C10.0758 9.26 9.47578 7.44 8.99578 5.6H10.9958C11.1424 6.2 11.3158 6.84667 11.5158 7.54C11.7291 8.23333 11.9624 8.94667 12.2158 9.68C12.4691 10.4133 12.7424 11.1467 13.0358 11.88C13.3291 12.6133 13.6358 13.32 13.9558 14C14.4624 12.6 14.9024 11.2133 15.2758 9.84C15.6491 8.46667 16.0024 7.05333 16.3358 5.6H18.2558C17.7758 7.56 17.2424 9.44667 16.6558 11.26C16.0691 13.06 15.4358 14.7467 14.7558 16.32C14.4891 16.92 14.2091 17.4333 13.9158 17.86C13.6358 18.3 13.3224 18.66 12.9758 18.94C12.6291 19.22 12.2358 19.4267 11.7958 19.56C11.3691 19.6933 10.8824 19.76 10.3358 19.76C10.1891 19.76 10.0358 19.7467 9.87578 19.72C9.71578 19.7067 9.55578 19.68 9.39578 19.64C9.24911 19.6133 9.10911 19.58 8.97578 19.54C8.85578 19.5 8.76911 19.4667 8.71578 19.44L9.05578 17.94ZM20.2172 5.9C20.6439 5.79333 21.2039 5.68 21.8972 5.56C22.6039 5.44 23.4172 5.38 24.3372 5.38C25.0039 5.38 25.5639 5.47333 26.0172 5.66C26.4705 5.83333 26.8505 6.09333 27.1572 6.44C27.2505 6.37333 27.3972 6.28 27.5972 6.16C27.7972 6.04 28.0439 5.92667 28.3372 5.82C28.6305 5.7 28.9572 5.6 29.3172 5.52C29.6772 5.42667 30.0639 5.38 30.4772 5.38C31.2772 5.38 31.9305 5.5 32.4372 5.74C32.9439 5.96667 33.3372 6.29333 33.6172 6.72C33.9105 7.14667 34.1039 7.65333 34.1972 8.24C34.3039 8.82667 34.3572 9.46667 34.3572 10.16V16H32.4972V10.56C32.4972 9.94667 32.4639 9.42 32.3972 8.98C32.3439 8.54 32.2305 8.17333 32.0572 7.88C31.8972 7.58667 31.6705 7.37333 31.3772 7.24C31.0972 7.09333 30.7305 7.02 30.2772 7.02C29.6505 7.02 29.1305 7.10667 28.7172 7.28C28.3172 7.44 28.0439 7.58667 27.8972 7.72C28.0039 8.06667 28.0839 8.44667 28.1372 8.86C28.1905 9.27333 28.2172 9.70667 28.2172 10.16V16H26.3572V10.56C26.3572 9.94667 26.3239 9.42 26.2572 8.98C26.1905 8.54 26.0705 8.17333 25.8972 7.88C25.7372 7.58667 25.5105 7.37333 25.2172 7.24C24.9372 7.09333 24.5772 7.02 24.1372 7.02C23.9505 7.02 23.7505 7.02667 23.5372 7.04C23.3239 7.05333 23.1172 7.07333 22.9172 7.1C22.7305 7.11333 22.5572 7.13333 22.3972 7.16C22.2372 7.18667 22.1305 7.20667 22.0772 7.22V16H20.2172V5.9Z" fill="#FAFAFA"/>
</svg>
