<svg width="24" height="24" viewBox="0 0 24 24" fill="none" xmlns="http://www.w3.org/2000/svg">
<path d="M2.88005 16.88C2.31824 17.4425 2.00269 18.205 2.00269 19C2.00269 19.795 2.31824 20.5575 2.88005 21.12C3.44255 21.6818 4.20504 21.9974 5.00005 21.9974C5.79505 21.9974 6.55754 21.6818 7.12005 21.12C7.64997 20.5513 7.93846 19.7991 7.92475 19.0219C7.91103 18.2447 7.59619 17.5032 7.04653 16.9535C6.49688 16.4039 5.75534 16.089 4.97814 16.0753C4.20093 16.0616 3.44875 16.3501 2.88005 16.88ZM5.71005 19.71C5.52174 19.8983 5.26635 20.0041 5.00005 20.0041C4.73374 20.0041 4.47835 19.8983 4.29005 19.71C4.10174 19.5217 3.99595 19.2663 3.99595 19C3.99595 18.7337 4.10174 18.4783 4.29005 18.29C4.38301 18.1963 4.49361 18.1219 4.61547 18.0711C4.73733 18.0203 4.86803 17.9942 5.00005 17.9942C5.13206 17.9942 5.26276 18.0203 5.38462 18.0711C5.50648 18.1219 5.61708 18.1963 5.71005 18.29C5.80377 18.383 5.87817 18.4936 5.92894 18.6154C5.97971 18.7373 6.00584 18.868 6.00584 19C6.00584 19.132 5.97971 19.2627 5.92894 19.3846C5.87817 19.5064 5.80377 19.617 5.71005 19.71ZM5.00005 12C4.73483 12 4.48048 12.1054 4.29294 12.2929C4.1054 12.4804 4.00005 12.7348 4.00005 13C4.00005 13.2652 4.1054 13.5196 4.29294 13.7071C4.48048 13.8946 4.73483 14 5.00005 14C6.32613 14 7.5979 14.5268 8.53558 15.4645C9.47326 16.4021 10 17.6739 10 19C10 19.2652 10.1054 19.5196 10.2929 19.7071C10.4805 19.8946 10.7348 20 11 20C11.2653 20 11.5196 19.8946 11.7072 19.7071C11.8947 19.5196 12 19.2652 12 19C12 17.1435 11.2625 15.363 9.94979 14.0503C8.63704 12.7375 6.85656 12 5.00005 12ZM5.00005 8C4.73483 8 4.48048 8.10536 4.29294 8.29289C4.1054 8.48043 4.00005 8.73478 4.00005 9C4.00005 9.26522 4.1054 9.51957 4.29294 9.70711C4.48048 9.89464 4.73483 10 5.00005 10C7.38699 10 9.67618 10.9482 11.364 12.636C13.0518 14.3239 14 16.6131 14 19C14 19.2652 14.1054 19.5196 14.2929 19.7071C14.4805 19.8946 14.7348 20 15 20C15.2653 20 15.5196 19.8946 15.7072 19.7071C15.8947 19.5196 16 19.2652 16 19C15.9923 16.084 14.8353 13.2886 12.78 11.22C10.7115 9.16472 7.91606 8.00775 5.00005 8ZM15.61 8.39C12.7888 5.58754 8.97659 4.01018 5.00005 4C4.73483 4 4.48048 4.10536 4.29294 4.29289C4.1054 4.48043 4.00005 4.73478 4.00005 5C4.00005 5.26522 4.1054 5.51957 4.29294 5.70711C4.48048 5.89464 4.73483 6 5.00005 6C8.44786 6 11.7545 7.36964 14.1924 9.80761C16.6304 12.2456 18 15.5522 18 19C18 19.2652 18.1054 19.5196 18.2929 19.7071C18.4805 19.8946 18.7348 20 19 20C19.2653 20 19.5196 19.8946 19.7072 19.7071C19.8947 19.5196 20 19.2652 20 19C19.9899 15.0235 18.4125 11.2112 15.61 8.39Z" fill="black"/>
</svg>
